<svg width="1024" height="1024" viewBox="0 0 1024 1024" fill="none" xmlns="http://www.w3.org/2000/svg">
	<path d="M267.939 862.653L512.115 1003.85L756.29 862.653L745.674 780.907L958 791.524L809.372 664.128L847.59 615.293L762.66 497.452V649.265L512.115 759.675L257.323 649.265L283.864 497.452L167.084 609.985L214.858 664.128L66.229 791.524L278.555 780.907L267.939 862.653Z" fill="#393C58"/>
	<path d="M347.561 159.852L514.238 20.7786L684.099 158.791L644.818 308.481L390.027 315.912L347.561 159.852Z" fill="#393C58"/>
	<path d="M775.399 651.388L516.361 764.983L257.323 651.388L332.699 551.595L391.089 299.988L457.971 236.29L516.361 284.064L574.751 236.29L641.634 299.988L700.024 551.595L775.399 651.388Z" fill="black"/>
	<path d="M775.4 651.388L795.571 498.513L755.229 462.418L684.099 158.791L641.634 299.988L700.024 551.595L775.4 651.388Z" fill="#2C2E3D"/>
	<path d="M257.323 651.388V490.02L277.494 462.418L348.623 158.791L391.089 299.988L332.699 551.595L257.323 651.388Z" fill="#2C2E3D"/>
</svg>
